<mxfile host="app.diagrams.net" modified="2024-03-27T07:22:03.447Z" agent="Mozilla/5.0 (Macintosh; Intel Mac OS X 10_15_7) AppleWebKit/537.36 (KHTML, like Gecko) Chrome/123.0.0.0 Safari/537.36" etag="K-y4n-6yAzdw3c-VjQPC" version="24.2.0" type="google" pages="2">
  <diagram name="시퀀스" id="2YBvvXClWsGukQMizWep">
    <mxGraphModel grid="1" page="1" gridSize="10" guides="1" tooltips="1" connect="1" arrows="1" fold="1" pageScale="1" pageWidth="850" pageHeight="1100" math="0" shadow="0">
      <root>
        <mxCell id="0" />
        <mxCell id="1" parent="0" />
        <mxCell id="aM9ryv3xv72pqoxQDRHE-1" value="OrderController" style="shape=umlLifeline;perimeter=lifelinePerimeter;whiteSpace=wrap;html=1;container=0;dropTarget=0;collapsible=0;recursiveResize=0;outlineConnect=0;portConstraint=eastwest;newEdgeStyle={&quot;edgeStyle&quot;:&quot;elbowEdgeStyle&quot;,&quot;elbow&quot;:&quot;vertical&quot;,&quot;curved&quot;:0,&quot;rounded&quot;:0};" vertex="1" parent="1">
          <mxGeometry x="101" y="40" width="100" height="240" as="geometry" />
        </mxCell>
        <mxCell id="aM9ryv3xv72pqoxQDRHE-3" value="주문생성 요청" style="html=1;verticalAlign=bottom;startArrow=oval;endArrow=block;startSize=8;edgeStyle=elbowEdgeStyle;elbow=vertical;curved=0;rounded=0;startFill=1;" edge="1" parent="aM9ryv3xv72pqoxQDRHE-1" target="aM9ryv3xv72pqoxQDRHE-1">
          <mxGeometry relative="1" as="geometry">
            <mxPoint x="-60" y="70" as="sourcePoint" />
            <mxPoint x="45" y="70" as="targetPoint" />
          </mxGeometry>
        </mxCell>
        <mxCell id="aM9ryv3xv72pqoxQDRHE-5" value="OrderService" style="shape=umlLifeline;perimeter=lifelinePerimeter;whiteSpace=wrap;html=1;container=0;dropTarget=0;collapsible=0;recursiveResize=0;outlineConnect=0;portConstraint=eastwest;newEdgeStyle={&quot;edgeStyle&quot;:&quot;elbowEdgeStyle&quot;,&quot;elbow&quot;:&quot;vertical&quot;,&quot;curved&quot;:0,&quot;rounded&quot;:0};" vertex="1" parent="1">
          <mxGeometry x="231" y="40" width="100" height="240" as="geometry" />
        </mxCell>
        <mxCell id="aM9ryv3xv72pqoxQDRHE-7" value="createOrder()" style="html=1;verticalAlign=bottom;endArrow=block;edgeStyle=elbowEdgeStyle;elbow=vertical;curved=0;rounded=0;" edge="1" parent="1">
          <mxGeometry relative="1" as="geometry">
            <mxPoint x="151" y="110.16999999999999" as="sourcePoint" />
            <Array as="points" />
            <mxPoint x="280.5" y="110.25" as="targetPoint" />
          </mxGeometry>
        </mxCell>
        <mxCell id="aM9ryv3xv72pqoxQDRHE-8" value="return" style="html=1;verticalAlign=bottom;endArrow=open;dashed=1;endSize=8;edgeStyle=elbowEdgeStyle;elbow=vertical;curved=0;rounded=0;" edge="1" parent="1" source="HxHMKZSQxjRHE89ySP4p-5">
          <mxGeometry relative="1" as="geometry">
            <mxPoint x="281" y="140" as="targetPoint" />
            <Array as="points">
              <mxPoint x="581.42" y="140" />
            </Array>
            <mxPoint x="541" y="140" as="sourcePoint" />
          </mxGeometry>
        </mxCell>
        <mxCell id="HxHMKZSQxjRHE89ySP4p-2" value="OrderServiceHepler" style="shape=umlLifeline;perimeter=lifelinePerimeter;whiteSpace=wrap;html=1;container=0;dropTarget=0;collapsible=0;recursiveResize=0;outlineConnect=0;portConstraint=eastwest;newEdgeStyle={&quot;edgeStyle&quot;:&quot;elbowEdgeStyle&quot;,&quot;elbow&quot;:&quot;vertical&quot;,&quot;curved&quot;:0,&quot;rounded&quot;:0};" vertex="1" parent="1">
          <mxGeometry x="361" y="40" width="120" height="240" as="geometry" />
        </mxCell>
        <mxCell id="HxHMKZSQxjRHE89ySP4p-4" value="persistOrder()" style="html=1;verticalAlign=bottom;endArrow=block;edgeStyle=elbowEdgeStyle;elbow=vertical;curved=0;rounded=0;" edge="1" parent="1">
          <mxGeometry relative="1" as="geometry">
            <mxPoint x="281" y="111" as="sourcePoint" />
            <Array as="points">
              <mxPoint x="415.12" y="111" />
            </Array>
            <mxPoint x="421" y="111" as="targetPoint" />
          </mxGeometry>
        </mxCell>
        <mxCell id="HxHMKZSQxjRHE89ySP4p-5" value="OrderDomainService" style="shape=umlLifeline;perimeter=lifelinePerimeter;whiteSpace=wrap;html=1;container=0;dropTarget=0;collapsible=0;recursiveResize=0;outlineConnect=0;portConstraint=eastwest;newEdgeStyle={&quot;edgeStyle&quot;:&quot;elbowEdgeStyle&quot;,&quot;elbow&quot;:&quot;vertical&quot;,&quot;curved&quot;:0,&quot;rounded&quot;:0};" vertex="1" parent="1">
          <mxGeometry x="511" y="40" width="120" height="240" as="geometry" />
        </mxCell>
        <mxCell id="HxHMKZSQxjRHE89ySP4p-7" value="OrderRepository" style="shape=umlLifeline;perimeter=lifelinePerimeter;whiteSpace=wrap;html=1;container=0;dropTarget=0;collapsible=0;recursiveResize=0;outlineConnect=0;portConstraint=eastwest;newEdgeStyle={&quot;edgeStyle&quot;:&quot;elbowEdgeStyle&quot;,&quot;elbow&quot;:&quot;vertical&quot;,&quot;curved&quot;:0,&quot;rounded&quot;:0};" vertex="1" parent="1">
          <mxGeometry x="661" y="40" width="120" height="240" as="geometry" />
        </mxCell>
        <mxCell id="HxHMKZSQxjRHE89ySP4p-9" value="createOrder()" style="html=1;verticalAlign=bottom;endArrow=block;edgeStyle=elbowEdgeStyle;elbow=horizontal;curved=0;rounded=0;" edge="1" parent="1">
          <mxGeometry relative="1" as="geometry">
            <mxPoint x="421" y="111" as="sourcePoint" />
            <Array as="points">
              <mxPoint x="546" y="111" />
            </Array>
            <mxPoint x="570.5" y="111" as="targetPoint" />
          </mxGeometry>
        </mxCell>
        <mxCell id="HxHMKZSQxjRHE89ySP4p-11" value="save()" style="html=1;verticalAlign=bottom;endArrow=block;edgeStyle=elbowEdgeStyle;elbow=horizontal;curved=0;rounded=0;" edge="1" parent="1">
          <mxGeometry relative="1" as="geometry">
            <mxPoint x="421.08333333333326" y="174" as="sourcePoint" />
            <Array as="points">
              <mxPoint x="606" y="174" />
            </Array>
            <mxPoint x="720.5000000000002" y="174" as="targetPoint" />
          </mxGeometry>
        </mxCell>
        <mxCell id="HxHMKZSQxjRHE89ySP4p-12" value="publish()" style="html=1;verticalAlign=bottom;endArrow=block;edgeStyle=elbowEdgeStyle;elbow=vertical;curved=0;rounded=0;" edge="1" parent="1" source="aM9ryv3xv72pqoxQDRHE-5" target="HxHMKZSQxjRHE89ySP4p-13">
          <mxGeometry relative="1" as="geometry">
            <mxPoint x="331.25" y="203" as="sourcePoint" />
            <Array as="points">
              <mxPoint x="445.12" y="203" />
            </Array>
            <mxPoint x="1090.5" y="203" as="targetPoint" />
          </mxGeometry>
        </mxCell>
        <mxCell id="HxHMKZSQxjRHE89ySP4p-13" value="OrderCreatedEventPublisher" style="shape=umlLifeline;perimeter=lifelinePerimeter;whiteSpace=wrap;html=1;container=0;dropTarget=0;collapsible=0;recursiveResize=0;outlineConnect=0;portConstraint=eastwest;newEdgeStyle={&quot;edgeStyle&quot;:&quot;elbowEdgeStyle&quot;,&quot;elbow&quot;:&quot;vertical&quot;,&quot;curved&quot;:0,&quot;rounded&quot;:0};" vertex="1" parent="1">
          <mxGeometry x="811" y="40" width="180" height="240" as="geometry" />
        </mxCell>
        <mxCell id="HxHMKZSQxjRHE89ySP4p-14" value="return" style="html=1;verticalAlign=bottom;endArrow=open;dashed=1;endSize=8;edgeStyle=elbowEdgeStyle;elbow=vertical;curved=0;rounded=0;" edge="1" parent="1">
          <mxGeometry relative="1" as="geometry">
            <mxPoint x="150.98717948717945" y="217" as="targetPoint" />
            <Array as="points">
              <mxPoint x="256" y="217" />
            </Array>
            <mxPoint x="281" y="217" as="sourcePoint" />
          </mxGeometry>
        </mxCell>
        <mxCell id="HxHMKZSQxjRHE89ySP4p-15" value="KafkaProducer" style="shape=umlLifeline;perimeter=lifelinePerimeter;whiteSpace=wrap;html=1;container=0;dropTarget=0;collapsible=0;recursiveResize=0;outlineConnect=0;portConstraint=eastwest;newEdgeStyle={&quot;edgeStyle&quot;:&quot;elbowEdgeStyle&quot;,&quot;elbow&quot;:&quot;vertical&quot;,&quot;curved&quot;:0,&quot;rounded&quot;:0};" vertex="1" parent="1">
          <mxGeometry x="1021" y="40" width="100" height="240" as="geometry" />
        </mxCell>
        <mxCell id="HxHMKZSQxjRHE89ySP4p-16" value="send()" style="html=1;verticalAlign=bottom;endArrow=block;edgeStyle=elbowEdgeStyle;elbow=horizontal;curved=0;rounded=0;" edge="1" parent="1">
          <mxGeometry relative="1" as="geometry">
            <mxPoint x="901" y="206" as="sourcePoint" />
            <Array as="points">
              <mxPoint x="1026" y="206" />
            </Array>
            <mxPoint x="1070.4999999999995" y="206" as="targetPoint" />
          </mxGeometry>
        </mxCell>
        <mxCell id="HxHMKZSQxjRHE89ySP4p-37" value="OrderMessageKafkaListener" style="shape=umlLifeline;perimeter=lifelinePerimeter;whiteSpace=wrap;html=1;container=0;dropTarget=0;collapsible=0;recursiveResize=0;outlineConnect=0;portConstraint=eastwest;newEdgeStyle={&quot;edgeStyle&quot;:&quot;elbowEdgeStyle&quot;,&quot;elbow&quot;:&quot;vertical&quot;,&quot;curved&quot;:0,&quot;rounded&quot;:0};" vertex="1" parent="1">
          <mxGeometry x="71" y="330" width="160" height="240" as="geometry" />
        </mxCell>
        <mxCell id="HxHMKZSQxjRHE89ySP4p-41" value="OrderEventListener" style="shape=umlLifeline;perimeter=lifelinePerimeter;whiteSpace=wrap;html=1;container=0;dropTarget=0;collapsible=0;recursiveResize=0;outlineConnect=0;portConstraint=eastwest;newEdgeStyle={&quot;edgeStyle&quot;:&quot;elbowEdgeStyle&quot;,&quot;elbow&quot;:&quot;vertical&quot;,&quot;curved&quot;:0,&quot;rounded&quot;:0};" vertex="1" parent="1">
          <mxGeometry x="271" y="330" width="120" height="240" as="geometry" />
        </mxCell>
        <mxCell id="HxHMKZSQxjRHE89ySP4p-43" value="OrderDomainService" style="shape=umlLifeline;perimeter=lifelinePerimeter;whiteSpace=wrap;html=1;container=0;dropTarget=0;collapsible=0;recursiveResize=0;outlineConnect=0;portConstraint=eastwest;newEdgeStyle={&quot;edgeStyle&quot;:&quot;elbowEdgeStyle&quot;,&quot;elbow&quot;:&quot;vertical&quot;,&quot;curved&quot;:0,&quot;rounded&quot;:0};" vertex="1" parent="1">
          <mxGeometry x="511" y="330" width="120" height="240" as="geometry" />
        </mxCell>
        <mxCell id="HxHMKZSQxjRHE89ySP4p-44" value="OrderRepository" style="shape=umlLifeline;perimeter=lifelinePerimeter;whiteSpace=wrap;html=1;container=0;dropTarget=0;collapsible=0;recursiveResize=0;outlineConnect=0;portConstraint=eastwest;newEdgeStyle={&quot;edgeStyle&quot;:&quot;elbowEdgeStyle&quot;,&quot;elbow&quot;:&quot;vertical&quot;,&quot;curved&quot;:0,&quot;rounded&quot;:0};" vertex="1" parent="1">
          <mxGeometry x="661" y="330" width="120" height="240" as="geometry" />
        </mxCell>
        <mxCell id="HxHMKZSQxjRHE89ySP4p-48" value="OrderCompletedEventPublisher" style="shape=umlLifeline;perimeter=lifelinePerimeter;whiteSpace=wrap;html=1;container=0;dropTarget=0;collapsible=0;recursiveResize=0;outlineConnect=0;portConstraint=eastwest;newEdgeStyle={&quot;edgeStyle&quot;:&quot;elbowEdgeStyle&quot;,&quot;elbow&quot;:&quot;vertical&quot;,&quot;curved&quot;:0,&quot;rounded&quot;:0};" vertex="1" parent="1">
          <mxGeometry x="811" y="330" width="180" height="240" as="geometry" />
        </mxCell>
        <mxCell id="HxHMKZSQxjRHE89ySP4p-50" value="KafkaProducer" style="shape=umlLifeline;perimeter=lifelinePerimeter;whiteSpace=wrap;html=1;container=0;dropTarget=0;collapsible=0;recursiveResize=0;outlineConnect=0;portConstraint=eastwest;newEdgeStyle={&quot;edgeStyle&quot;:&quot;elbowEdgeStyle&quot;,&quot;elbow&quot;:&quot;vertical&quot;,&quot;curved&quot;:0,&quot;rounded&quot;:0};" vertex="1" parent="1">
          <mxGeometry x="1021" y="330" width="100" height="240" as="geometry" />
        </mxCell>
        <mxCell id="HxHMKZSQxjRHE89ySP4p-54" value="receive()" style="html=1;verticalAlign=bottom;startArrow=oval;endArrow=block;startSize=8;edgeStyle=elbowEdgeStyle;elbow=vertical;curved=0;rounded=0;startFill=1;" edge="1" parent="1" target="HxHMKZSQxjRHE89ySP4p-37">
          <mxGeometry relative="1" as="geometry">
            <mxPoint x="51" y="409.7" as="sourcePoint" />
            <mxPoint x="161" y="409.7" as="targetPoint" />
          </mxGeometry>
        </mxCell>
        <mxCell id="HxHMKZSQxjRHE89ySP4p-55" value="orderCreated()" style="html=1;verticalAlign=bottom;startArrow=none;endArrow=block;startSize=8;edgeStyle=elbowEdgeStyle;elbow=vertical;curved=0;rounded=0;startFill=0;exitX=0.5;exitY=0.333;exitDx=0;exitDy=0;exitPerimeter=0;" edge="1" parent="1" source="HxHMKZSQxjRHE89ySP4p-37" target="HxHMKZSQxjRHE89ySP4p-41">
          <mxGeometry relative="1" as="geometry">
            <mxPoint x="181" y="409.7" as="sourcePoint" />
            <mxPoint x="311" y="410" as="targetPoint" />
            <Array as="points">
              <mxPoint x="151" y="410" />
            </Array>
          </mxGeometry>
        </mxCell>
        <mxCell id="HxHMKZSQxjRHE89ySP4p-56" value="completeOrder()" style="html=1;verticalAlign=bottom;startArrow=none;endArrow=block;startSize=8;edgeStyle=elbowEdgeStyle;elbow=vertical;curved=0;rounded=0;startFill=0;" edge="1" parent="1" target="HxHMKZSQxjRHE89ySP4p-43">
          <mxGeometry relative="1" as="geometry">
            <mxPoint x="331" y="409.7" as="sourcePoint" />
            <mxPoint x="550.5" y="410" as="targetPoint" />
            <Array as="points">
              <mxPoint x="311" y="410" />
            </Array>
          </mxGeometry>
        </mxCell>
        <mxCell id="HxHMKZSQxjRHE89ySP4p-57" value="updateOrder()" style="html=1;verticalAlign=bottom;startArrow=none;endArrow=block;startSize=8;edgeStyle=elbowEdgeStyle;elbow=vertical;curved=0;rounded=0;startFill=0;" edge="1" parent="1">
          <mxGeometry relative="1" as="geometry">
            <mxPoint x="331.16666666666674" y="472" as="sourcePoint" />
            <mxPoint x="720.5" y="472" as="targetPoint" />
          </mxGeometry>
        </mxCell>
        <mxCell id="HxHMKZSQxjRHE89ySP4p-58" value="return" style="html=1;verticalAlign=bottom;endArrow=open;dashed=1;endSize=8;edgeStyle=elbowEdgeStyle;elbow=vertical;curved=0;rounded=0;" edge="1" parent="1">
          <mxGeometry relative="1" as="geometry">
            <mxPoint x="331.16666666666674" y="442" as="targetPoint" />
            <Array as="points" />
            <mxPoint x="570.5" y="442" as="sourcePoint" />
          </mxGeometry>
        </mxCell>
        <mxCell id="HxHMKZSQxjRHE89ySP4p-59" value="pubish()" style="html=1;verticalAlign=bottom;startArrow=none;endArrow=block;startSize=8;edgeStyle=elbowEdgeStyle;elbow=vertical;curved=0;rounded=0;startFill=0;" edge="1" parent="1">
          <mxGeometry x="-0.001" relative="1" as="geometry">
            <mxPoint x="331.16666666666674" y="501" as="sourcePoint" />
            <mxPoint x="900.5" y="501" as="targetPoint" />
            <mxPoint as="offset" />
          </mxGeometry>
        </mxCell>
        <mxCell id="HxHMKZSQxjRHE89ySP4p-60" value="send()" style="html=1;verticalAlign=bottom;endArrow=block;edgeStyle=elbowEdgeStyle;elbow=horizontal;curved=0;rounded=0;" edge="1" parent="1">
          <mxGeometry relative="1" as="geometry">
            <mxPoint x="901" y="505" as="sourcePoint" />
            <Array as="points">
              <mxPoint x="1026" y="505" />
            </Array>
            <mxPoint x="1070.4999999999995" y="505" as="targetPoint" />
          </mxGeometry>
        </mxCell>
      </root>
    </mxGraphModel>
  </diagram>
  <diagram id="QrGGjr1mRr7yFnMTDbVB" name="컴포넌트">
    <mxGraphModel grid="1" page="1" gridSize="10" guides="1" tooltips="1" connect="1" arrows="1" fold="1" pageScale="1" pageWidth="827" pageHeight="1169" math="0" shadow="0">
      <root>
        <mxCell id="0" />
        <mxCell id="1" parent="0" />
        <mxCell id="PsfEnYGuniVdeW-d2Mzt-145" value="infrastructure" style="shape=module;align=left;spacingLeft=20;align=center;verticalAlign=top;fontStyle=1;fontSize=15;strokeColor=#0E452A;strokeWidth=2;fontColor=#0E452A;labelBackgroundColor=none;fillColor=#B2E2AB;" vertex="1" parent="1">
          <mxGeometry x="60" y="-140" width="1800" height="250" as="geometry" />
        </mxCell>
        <mxCell id="PsfEnYGuniVdeW-d2Mzt-146" value="" style="shape=folder;fontStyle=1;spacingTop=10;tabWidth=110;tabHeight=29;tabPosition=left;html=1;fontColor=#9AC7BF;strokeWidth=2;strokeColor=#0E452A;fillColor=#D5E8D4;" vertex="1" parent="1">
          <mxGeometry x="703.25" y="-65" width="198" height="120" as="geometry" />
        </mxCell>
        <mxCell id="PsfEnYGuniVdeW-d2Mzt-147" value="consumer" style="text;html=1;strokeColor=none;fillColor=none;align=center;verticalAlign=middle;whiteSpace=wrap;rounded=0;fontColor=#177245;fontStyle=1" vertex="1" parent="1">
          <mxGeometry x="705.25" y="-60" width="109" height="20" as="geometry" />
        </mxCell>
        <mxCell id="PsfEnYGuniVdeW-d2Mzt-148" value="«interface»&lt;br&gt;&lt;b&gt;KafkaConsumer&lt;/b&gt;" style="html=1;dropTarget=0;fillColor=#f5f5f5;fontColor=#0E452A;strokeColor=#0E452A;" vertex="1" parent="1">
          <mxGeometry x="712.25" y="-26" width="180" height="70" as="geometry" />
        </mxCell>
        <mxCell id="PsfEnYGuniVdeW-d2Mzt-149" value="" style="shape=component;jettyWidth=8;jettyHeight=4;" vertex="1" parent="PsfEnYGuniVdeW-d2Mzt-148">
          <mxGeometry x="1" width="20" height="20" relative="1" as="geometry">
            <mxPoint x="-27" y="7" as="offset" />
          </mxGeometry>
        </mxCell>
        <mxCell id="PsfEnYGuniVdeW-d2Mzt-151" value="" style="shape=folder;fontStyle=1;spacingTop=10;tabWidth=110;tabHeight=29;tabPosition=left;html=1;fontColor=#9AC7BF;strokeWidth=2;strokeColor=#0E452A;fillColor=#D5E8D4;" vertex="1" parent="1">
          <mxGeometry x="1190.25" y="-70.5" width="426" height="120.5" as="geometry" />
        </mxCell>
        <mxCell id="PsfEnYGuniVdeW-d2Mzt-152" value="producer" style="text;html=1;strokeColor=none;fillColor=none;align=center;verticalAlign=middle;whiteSpace=wrap;rounded=0;fontColor=#177245;fontStyle=1" vertex="1" parent="1">
          <mxGeometry x="1192.25" y="-65.5" width="109" height="20" as="geometry" />
        </mxCell>
        <mxCell id="PsfEnYGuniVdeW-d2Mzt-153" value="«interface»&lt;br&gt;&lt;b&gt;KafkaProducer&lt;/b&gt;" style="html=1;dropTarget=0;fillColor=#f5f5f5;fontColor=#0E452A;strokeColor=#0E452A;" vertex="1" parent="1">
          <mxGeometry x="1199.25" y="-31.5" width="180" height="70" as="geometry" />
        </mxCell>
        <mxCell id="PsfEnYGuniVdeW-d2Mzt-154" value="" style="shape=component;jettyWidth=8;jettyHeight=4;" vertex="1" parent="PsfEnYGuniVdeW-d2Mzt-153">
          <mxGeometry x="1" width="20" height="20" relative="1" as="geometry">
            <mxPoint x="-27" y="7" as="offset" />
          </mxGeometry>
        </mxCell>
        <mxCell id="PsfEnYGuniVdeW-d2Mzt-158" value="" style="edgeStyle=orthogonalEdgeStyle;rounded=0;orthogonalLoop=1;jettySize=auto;html=1;dashed=1;endArrow=block;endFill=0;" edge="1" parent="1" source="PsfEnYGuniVdeW-d2Mzt-155" target="PsfEnYGuniVdeW-d2Mzt-153">
          <mxGeometry relative="1" as="geometry" />
        </mxCell>
        <mxCell id="PsfEnYGuniVdeW-d2Mzt-155" value="&lt;b&gt;KafkaProducerImpl&lt;/b&gt;" style="html=1;dropTarget=0;fillColor=#f5f5f5;fontColor=#0E452A;strokeColor=#0E452A;" vertex="1" parent="1">
          <mxGeometry x="1416.5" y="-31.5" width="180" height="70" as="geometry" />
        </mxCell>
        <mxCell id="PsfEnYGuniVdeW-d2Mzt-156" value="" style="shape=component;jettyWidth=8;jettyHeight=4;" vertex="1" parent="PsfEnYGuniVdeW-d2Mzt-155">
          <mxGeometry x="1" width="20" height="20" relative="1" as="geometry">
            <mxPoint x="-27" y="7" as="offset" />
          </mxGeometry>
        </mxCell>
        <mxCell id="PsfEnYGuniVdeW-d2Mzt-161" value="" style="shape=folder;fontStyle=1;spacingTop=10;tabWidth=110;tabHeight=29;tabPosition=left;html=1;fontColor=#9AC7BF;strokeWidth=2;strokeColor=#0E452A;fillColor=#D5E8D4;" vertex="1" parent="1">
          <mxGeometry x="199" y="-70.5" width="198" height="120" as="geometry" />
        </mxCell>
        <mxCell id="PsfEnYGuniVdeW-d2Mzt-162" value="domain" style="text;html=1;strokeColor=none;fillColor=none;align=center;verticalAlign=middle;whiteSpace=wrap;rounded=0;fontColor=#177245;fontStyle=1" vertex="1" parent="1">
          <mxGeometry x="201" y="-65.5" width="109" height="20" as="geometry" />
        </mxCell>
        <mxCell id="PsfEnYGuniVdeW-d2Mzt-163" value="&lt;b&gt;TopicMessage&lt;/b&gt;" style="html=1;dropTarget=0;fillColor=#f5f5f5;fontColor=#0E452A;strokeColor=#0E452A;" vertex="1" parent="1">
          <mxGeometry x="208" y="-31.5" width="180" height="70" as="geometry" />
        </mxCell>
        <mxCell id="PsfEnYGuniVdeW-d2Mzt-164" value="" style="shape=component;jettyWidth=8;jettyHeight=4;" vertex="1" parent="PsfEnYGuniVdeW-d2Mzt-163">
          <mxGeometry x="1" width="20" height="20" relative="1" as="geometry">
            <mxPoint x="-27" y="7" as="offset" />
          </mxGeometry>
        </mxCell>
        <mxCell id="PsfEnYGuniVdeW-d2Mzt-165" value="order-service" style="shape=module;align=left;spacingLeft=20;align=center;verticalAlign=top;fontStyle=1;fontSize=15;strokeColor=#0E452A;strokeWidth=2;fontColor=#0E452A;fillColor=#E7F6E5;" vertex="1" parent="1">
          <mxGeometry x="60" y="-1090" width="1800" height="890" as="geometry" />
        </mxCell>
        <mxCell id="PsfEnYGuniVdeW-d2Mzt-167" value="order-api" style="shape=module;align=left;spacingLeft=20;align=center;verticalAlign=top;fontStyle=1;fontSize=15;strokeColor=#0E452A;strokeWidth=2;fillColor=#B9E0A5;fontColor=#0E452A;" vertex="1" parent="1">
          <mxGeometry x="120" y="-1020" width="357.75" height="210" as="geometry" />
        </mxCell>
        <mxCell id="PsfEnYGuniVdeW-d2Mzt-168" value="" style="shape=folder;fontStyle=1;spacingTop=10;tabWidth=110;tabHeight=29;tabPosition=left;html=1;fontColor=#9AC7BF;strokeWidth=2;strokeColor=#0E452A;fillColor=#D5E8D4;" vertex="1" parent="1">
          <mxGeometry x="199" y="-959" width="198" height="120" as="geometry" />
        </mxCell>
        <mxCell id="PsfEnYGuniVdeW-d2Mzt-169" value="controller" style="text;html=1;strokeColor=none;fillColor=none;align=center;verticalAlign=middle;whiteSpace=wrap;rounded=0;fontColor=#177245;fontStyle=1" vertex="1" parent="1">
          <mxGeometry x="201" y="-954" width="109" height="20" as="geometry" />
        </mxCell>
        <mxCell id="PsfEnYGuniVdeW-d2Mzt-170" value="&lt;b&gt;OrderController&lt;/b&gt;" style="html=1;dropTarget=0;fillColor=#f5f5f5;fontColor=#0E452A;strokeColor=#0E452A;" vertex="1" parent="1">
          <mxGeometry x="208.75" y="-920" width="180" height="70" as="geometry" />
        </mxCell>
        <mxCell id="PsfEnYGuniVdeW-d2Mzt-171" value="" style="shape=component;jettyWidth=8;jettyHeight=4;" vertex="1" parent="PsfEnYGuniVdeW-d2Mzt-170">
          <mxGeometry x="1" width="20" height="20" relative="1" as="geometry">
            <mxPoint x="-27" y="7" as="offset" />
          </mxGeometry>
        </mxCell>
        <mxCell id="PsfEnYGuniVdeW-d2Mzt-172" value="order-domain" style="shape=module;align=left;spacingLeft=20;align=center;verticalAlign=top;fontStyle=1;fontSize=15;strokeColor=#0E452A;strokeWidth=2;fillColor=#B9E0A5;fontColor=#0E452A;" vertex="1" parent="1">
          <mxGeometry x="538" y="-1020" width="1270" height="530" as="geometry" />
        </mxCell>
        <mxCell id="PsfEnYGuniVdeW-d2Mzt-177" value="" style="shape=folder;fontStyle=1;spacingTop=10;tabWidth=110;tabHeight=29;tabPosition=left;html=1;fontColor=#9AC7BF;strokeWidth=2;strokeColor=#0E452A;fillColor=#D5E8D4;" vertex="1" parent="1">
          <mxGeometry x="588" y="-990" width="426" height="130" as="geometry" />
        </mxCell>
        <mxCell id="PsfEnYGuniVdeW-d2Mzt-178" value="core" style="text;html=1;strokeColor=none;fillColor=none;align=center;verticalAlign=middle;whiteSpace=wrap;rounded=0;fontColor=#177245;fontStyle=1" vertex="1" parent="1">
          <mxGeometry x="590" y="-985" width="109" height="20" as="geometry" />
        </mxCell>
        <mxCell id="PsfEnYGuniVdeW-d2Mzt-179" value="«interface»&lt;br&gt;&lt;b&gt;OrderDomainService&lt;/b&gt;" style="html=1;dropTarget=0;fillColor=#f5f5f5;fontColor=#0E452A;strokeColor=#0E452A;" vertex="1" parent="1">
          <mxGeometry x="601.5" y="-947" width="180" height="70" as="geometry" />
        </mxCell>
        <mxCell id="PsfEnYGuniVdeW-d2Mzt-180" value="" style="shape=component;jettyWidth=8;jettyHeight=4;" vertex="1" parent="PsfEnYGuniVdeW-d2Mzt-179">
          <mxGeometry x="1" width="20" height="20" relative="1" as="geometry">
            <mxPoint x="-27" y="7" as="offset" />
          </mxGeometry>
        </mxCell>
        <mxCell id="PsfEnYGuniVdeW-d2Mzt-181" value="" style="edgeStyle=orthogonalEdgeStyle;rounded=0;orthogonalLoop=1;jettySize=auto;html=1;dashed=1;endArrow=block;endFill=0;" edge="1" parent="1" source="PsfEnYGuniVdeW-d2Mzt-182" target="PsfEnYGuniVdeW-d2Mzt-179">
          <mxGeometry relative="1" as="geometry" />
        </mxCell>
        <mxCell id="PsfEnYGuniVdeW-d2Mzt-182" value="&lt;b&gt;OrderDomainServiceImpl&lt;/b&gt;" style="html=1;dropTarget=0;fillColor=#f5f5f5;fontColor=#0E452A;strokeColor=#0E452A;" vertex="1" parent="1">
          <mxGeometry x="818.5" y="-947" width="180" height="70" as="geometry" />
        </mxCell>
        <mxCell id="PsfEnYGuniVdeW-d2Mzt-183" value="" style="shape=component;jettyWidth=8;jettyHeight=4;" vertex="1" parent="PsfEnYGuniVdeW-d2Mzt-182">
          <mxGeometry x="1" width="20" height="20" relative="1" as="geometry">
            <mxPoint x="-27" y="7" as="offset" />
          </mxGeometry>
        </mxCell>
        <mxCell id="PsfEnYGuniVdeW-d2Mzt-184" value="" style="shape=folder;fontStyle=1;spacingTop=10;tabWidth=110;tabHeight=29;tabPosition=left;html=1;fontColor=#9AC7BF;strokeWidth=2;strokeColor=#0E452A;fillColor=#D5E8D4;" vertex="1" parent="1">
          <mxGeometry x="588" y="-815" width="1190" height="302" as="geometry" />
        </mxCell>
        <mxCell id="PsfEnYGuniVdeW-d2Mzt-185" value="service" style="text;html=1;strokeColor=none;fillColor=none;align=center;verticalAlign=middle;whiteSpace=wrap;rounded=0;fontColor=#177245;fontStyle=1" vertex="1" parent="1">
          <mxGeometry x="590" y="-810" width="109" height="20" as="geometry" />
        </mxCell>
        <mxCell id="PsfEnYGuniVdeW-d2Mzt-193" value="" style="shape=folder;fontStyle=1;spacingTop=10;tabWidth=110;tabHeight=29;tabPosition=left;html=1;fontColor=#9AC7BF;strokeWidth=2;strokeColor=#0E452A;fillColor=#D5E8D4;" vertex="1" parent="1">
          <mxGeometry x="618" y="-668" width="450" height="135" as="geometry" />
        </mxCell>
        <mxCell id="PsfEnYGuniVdeW-d2Mzt-194" value="port.input" style="text;html=1;strokeColor=none;fillColor=none;align=center;verticalAlign=middle;whiteSpace=wrap;rounded=0;fontColor=#177245;fontStyle=1" vertex="1" parent="1">
          <mxGeometry x="618" y="-663" width="109" height="20" as="geometry" />
        </mxCell>
        <mxCell id="PsfEnYGuniVdeW-d2Mzt-186" value="«interface»&lt;br&gt;&lt;b&gt;OrderService&lt;/b&gt;" style="html=1;dropTarget=0;fillColor=#f5f5f5;fontColor=#0E452A;strokeColor=#0E452A;" vertex="1" parent="1">
          <mxGeometry x="639" y="-622" width="180" height="70" as="geometry" />
        </mxCell>
        <mxCell id="PsfEnYGuniVdeW-d2Mzt-187" value="" style="shape=component;jettyWidth=8;jettyHeight=4;" vertex="1" parent="PsfEnYGuniVdeW-d2Mzt-186">
          <mxGeometry x="1" width="20" height="20" relative="1" as="geometry">
            <mxPoint x="-27" y="7" as="offset" />
          </mxGeometry>
        </mxCell>
        <mxCell id="PsfEnYGuniVdeW-d2Mzt-191" value="«interface»&lt;br&gt;&lt;b&gt;OrderEventLisener&lt;/b&gt;" style="html=1;dropTarget=0;fillColor=#f5f5f5;fontColor=#0E452A;strokeColor=#0E452A;" vertex="1" parent="1">
          <mxGeometry x="858" y="-622" width="180" height="70" as="geometry" />
        </mxCell>
        <mxCell id="PsfEnYGuniVdeW-d2Mzt-192" value="" style="shape=component;jettyWidth=8;jettyHeight=4;" vertex="1" parent="PsfEnYGuniVdeW-d2Mzt-191">
          <mxGeometry x="1" width="20" height="20" relative="1" as="geometry">
            <mxPoint x="-27" y="7" as="offset" />
          </mxGeometry>
        </mxCell>
        <mxCell id="PsfEnYGuniVdeW-d2Mzt-195" value="" style="shape=folder;fontStyle=1;spacingTop=10;tabWidth=110;tabHeight=29;tabPosition=left;html=1;fontColor=#9AC7BF;strokeWidth=2;strokeColor=#0E452A;fillColor=#D5E8D4;" vertex="1" parent="1">
          <mxGeometry x="1098" y="-668" width="650" height="135" as="geometry" />
        </mxCell>
        <mxCell id="PsfEnYGuniVdeW-d2Mzt-196" value="port.output" style="text;html=1;strokeColor=none;fillColor=none;align=center;verticalAlign=middle;whiteSpace=wrap;rounded=0;fontColor=#177245;fontStyle=1" vertex="1" parent="1">
          <mxGeometry x="1098" y="-663" width="109" height="20" as="geometry" />
        </mxCell>
        <mxCell id="PsfEnYGuniVdeW-d2Mzt-197" value="«interface»&lt;br&gt;&lt;b&gt;OrderRepository&lt;/b&gt;" style="html=1;dropTarget=0;fillColor=#f5f5f5;fontColor=#0E452A;strokeColor=#0E452A;" vertex="1" parent="1">
          <mxGeometry x="1119" y="-622" width="180" height="70" as="geometry" />
        </mxCell>
        <mxCell id="PsfEnYGuniVdeW-d2Mzt-198" value="" style="shape=component;jettyWidth=8;jettyHeight=4;" vertex="1" parent="PsfEnYGuniVdeW-d2Mzt-197">
          <mxGeometry x="1" width="20" height="20" relative="1" as="geometry">
            <mxPoint x="-27" y="7" as="offset" />
          </mxGeometry>
        </mxCell>
        <mxCell id="PsfEnYGuniVdeW-d2Mzt-199" value="«interface»&lt;br&gt;&lt;b&gt;OrderCreatedEventPublisher&lt;/b&gt;" style="html=1;dropTarget=0;fillColor=#f5f5f5;fontColor=#0E452A;strokeColor=#0E452A;" vertex="1" parent="1">
          <mxGeometry x="1328" y="-622" width="180" height="70" as="geometry" />
        </mxCell>
        <mxCell id="PsfEnYGuniVdeW-d2Mzt-200" value="" style="shape=component;jettyWidth=8;jettyHeight=4;" vertex="1" parent="PsfEnYGuniVdeW-d2Mzt-199">
          <mxGeometry x="1" width="20" height="20" relative="1" as="geometry">
            <mxPoint x="-27" y="7" as="offset" />
          </mxGeometry>
        </mxCell>
        <mxCell id="PsfEnYGuniVdeW-d2Mzt-201" value="«interface»&lt;br&gt;&lt;b&gt;OrderCompletedEventPublisher&lt;/b&gt;" style="html=1;dropTarget=0;fillColor=#f5f5f5;fontColor=#0E452A;strokeColor=#0E452A;" vertex="1" parent="1">
          <mxGeometry x="1538" y="-622" width="190" height="70" as="geometry" />
        </mxCell>
        <mxCell id="PsfEnYGuniVdeW-d2Mzt-202" value="" style="shape=component;jettyWidth=8;jettyHeight=4;" vertex="1" parent="PsfEnYGuniVdeW-d2Mzt-201">
          <mxGeometry x="1" width="20" height="20" relative="1" as="geometry">
            <mxPoint x="-27" y="7" as="offset" />
          </mxGeometry>
        </mxCell>
        <mxCell id="PsfEnYGuniVdeW-d2Mzt-207" value="" style="edgeStyle=orthogonalEdgeStyle;rounded=0;orthogonalLoop=1;jettySize=auto;html=1;entryX=0.5;entryY=0;entryDx=0;entryDy=0;endArrow=block;endFill=0;dashed=1;" edge="1" parent="1" source="PsfEnYGuniVdeW-d2Mzt-203" target="PsfEnYGuniVdeW-d2Mzt-186">
          <mxGeometry relative="1" as="geometry" />
        </mxCell>
        <mxCell id="PsfEnYGuniVdeW-d2Mzt-245" style="rounded=0;orthogonalLoop=1;jettySize=auto;html=1;entryX=0.5;entryY=1;entryDx=0;entryDy=0;strokeColor=default;align=center;verticalAlign=middle;fontFamily=Helvetica;fontSize=11;fontColor=default;labelBackgroundColor=default;endArrow=open;endFill=0;" edge="1" parent="1" source="PsfEnYGuniVdeW-d2Mzt-203" target="PsfEnYGuniVdeW-d2Mzt-179">
          <mxGeometry relative="1" as="geometry" />
        </mxCell>
        <mxCell id="PsfEnYGuniVdeW-d2Mzt-203" value="&lt;b&gt;OrderServiceImpl&lt;/b&gt;" style="html=1;dropTarget=0;fillColor=#f5f5f5;fontColor=#0E452A;strokeColor=#0E452A;" vertex="1" parent="1">
          <mxGeometry x="638" y="-759" width="180" height="70" as="geometry" />
        </mxCell>
        <mxCell id="PsfEnYGuniVdeW-d2Mzt-204" value="" style="shape=component;jettyWidth=8;jettyHeight=4;" vertex="1" parent="PsfEnYGuniVdeW-d2Mzt-203">
          <mxGeometry x="1" width="20" height="20" relative="1" as="geometry">
            <mxPoint x="-27" y="7" as="offset" />
          </mxGeometry>
        </mxCell>
        <mxCell id="PsfEnYGuniVdeW-d2Mzt-208" value="" style="edgeStyle=orthogonalEdgeStyle;rounded=0;orthogonalLoop=1;jettySize=auto;html=1;dashed=1;strokeColor=default;align=center;verticalAlign=middle;fontFamily=Helvetica;fontSize=11;fontColor=default;labelBackgroundColor=default;endArrow=block;endFill=0;entryX=0.5;entryY=0;entryDx=0;entryDy=0;" edge="1" parent="1" source="PsfEnYGuniVdeW-d2Mzt-205" target="PsfEnYGuniVdeW-d2Mzt-191">
          <mxGeometry relative="1" as="geometry">
            <mxPoint x="938" y="-659" as="targetPoint" />
          </mxGeometry>
        </mxCell>
        <mxCell id="PsfEnYGuniVdeW-d2Mzt-205" value="&lt;b&gt;OrderEventLisenerImpl&lt;/b&gt;" style="html=1;dropTarget=0;fillColor=#f5f5f5;fontColor=#0E452A;strokeColor=#0E452A;" vertex="1" parent="1">
          <mxGeometry x="858" y="-759" width="180" height="70" as="geometry" />
        </mxCell>
        <mxCell id="PsfEnYGuniVdeW-d2Mzt-206" value="" style="shape=component;jettyWidth=8;jettyHeight=4;" vertex="1" parent="PsfEnYGuniVdeW-d2Mzt-205">
          <mxGeometry x="1" width="20" height="20" relative="1" as="geometry">
            <mxPoint x="-27" y="7" as="offset" />
          </mxGeometry>
        </mxCell>
        <mxCell id="PsfEnYGuniVdeW-d2Mzt-209" value="order-dataaccess" style="shape=module;align=left;spacingLeft=20;align=center;verticalAlign=top;fontStyle=1;fontSize=15;strokeColor=#0E452A;strokeWidth=2;fillColor=#B9E0A5;fontColor=#0E452A;" vertex="1" parent="1">
          <mxGeometry x="119.13" y="-745" width="357.75" height="340" as="geometry" />
        </mxCell>
        <mxCell id="PsfEnYGuniVdeW-d2Mzt-236" style="rounded=0;orthogonalLoop=1;jettySize=auto;html=1;entryX=0;entryY=0.5;entryDx=0;entryDy=0;dashed=1;strokeColor=default;align=center;verticalAlign=middle;fontFamily=Helvetica;fontSize=11;fontColor=default;labelBackgroundColor=default;endArrow=block;endFill=0;" edge="1" parent="1" source="PsfEnYGuniVdeW-d2Mzt-212" target="PsfEnYGuniVdeW-d2Mzt-197">
          <mxGeometry relative="1" as="geometry" />
        </mxCell>
        <mxCell id="PsfEnYGuniVdeW-d2Mzt-212" value="&lt;b&gt;OrderRepositoryAdapter&lt;/b&gt;" style="html=1;dropTarget=0;fillColor=#f5f5f5;fontColor=#0E452A;strokeColor=#0E452A;" vertex="1" parent="1">
          <mxGeometry x="204.01" y="-695" width="180" height="70" as="geometry" />
        </mxCell>
        <mxCell id="PsfEnYGuniVdeW-d2Mzt-213" value="" style="shape=component;jettyWidth=8;jettyHeight=4;" vertex="1" parent="PsfEnYGuniVdeW-d2Mzt-212">
          <mxGeometry x="1" width="20" height="20" relative="1" as="geometry">
            <mxPoint x="-27" y="7" as="offset" />
          </mxGeometry>
        </mxCell>
        <mxCell id="PsfEnYGuniVdeW-d2Mzt-215" value="" style="shape=folder;fontStyle=1;spacingTop=10;tabWidth=110;tabHeight=29;tabPosition=left;html=1;fontColor=#9AC7BF;strokeWidth=2;strokeColor=#0E452A;fillColor=#D5E8D4;" vertex="1" parent="1">
          <mxGeometry x="189.01" y="-579" width="210" height="131" as="geometry" />
        </mxCell>
        <mxCell id="PsfEnYGuniVdeW-d2Mzt-216" value="repository" style="text;html=1;strokeColor=none;fillColor=none;align=center;verticalAlign=middle;whiteSpace=wrap;rounded=0;fontColor=#177245;fontStyle=1" vertex="1" parent="1">
          <mxGeometry x="191.01" y="-574" width="109" height="20" as="geometry" />
        </mxCell>
        <mxCell id="PsfEnYGuniVdeW-d2Mzt-217" value="«interface»&lt;br&gt;&lt;b&gt;OrderJpaRepository&lt;/b&gt;" style="html=1;dropTarget=0;fillColor=#f5f5f5;fontColor=#0E452A;strokeColor=#0E452A;" vertex="1" parent="1">
          <mxGeometry x="202.76" y="-536" width="180" height="70" as="geometry" />
        </mxCell>
        <mxCell id="PsfEnYGuniVdeW-d2Mzt-218" value="" style="shape=component;jettyWidth=8;jettyHeight=4;" vertex="1" parent="PsfEnYGuniVdeW-d2Mzt-217">
          <mxGeometry x="1" width="20" height="20" relative="1" as="geometry">
            <mxPoint x="-27" y="7" as="offset" />
          </mxGeometry>
        </mxCell>
        <mxCell id="PsfEnYGuniVdeW-d2Mzt-221" value="order-messaging" style="shape=module;align=left;spacingLeft=20;align=center;verticalAlign=top;fontStyle=1;fontSize=15;strokeColor=#0E452A;strokeWidth=2;fillColor=#B9E0A5;fontColor=#0E452A;" vertex="1" parent="1">
          <mxGeometry x="538" y="-454" width="1270" height="210" as="geometry" />
        </mxCell>
        <mxCell id="PsfEnYGuniVdeW-d2Mzt-222" value="" style="shape=folder;fontStyle=1;spacingTop=10;tabWidth=110;tabHeight=29;tabPosition=left;html=1;fontColor=#9AC7BF;strokeWidth=2;strokeColor=#0E452A;fillColor=#D5E8D4;" vertex="1" parent="1">
          <mxGeometry x="818" y="-414" width="222" height="130" as="geometry" />
        </mxCell>
        <mxCell id="PsfEnYGuniVdeW-d2Mzt-223" value="listener" style="text;html=1;strokeColor=none;fillColor=none;align=center;verticalAlign=middle;whiteSpace=wrap;rounded=0;fontColor=#177245;fontStyle=1" vertex="1" parent="1">
          <mxGeometry x="820" y="-409" width="109" height="20" as="geometry" />
        </mxCell>
        <mxCell id="PsfEnYGuniVdeW-d2Mzt-239" style="rounded=0;orthogonalLoop=1;jettySize=auto;html=1;entryX=0.5;entryY=1;entryDx=0;entryDy=0;strokeColor=default;align=center;verticalAlign=middle;fontFamily=Helvetica;fontSize=11;fontColor=default;labelBackgroundColor=default;endArrow=open;endFill=0;" edge="1" parent="1" source="PsfEnYGuniVdeW-d2Mzt-224" target="PsfEnYGuniVdeW-d2Mzt-191">
          <mxGeometry relative="1" as="geometry" />
        </mxCell>
        <mxCell id="PsfEnYGuniVdeW-d2Mzt-224" value="&lt;b&gt;OrderMessageKafkaListener&lt;/b&gt;" style="html=1;dropTarget=0;fillColor=#f5f5f5;fontColor=#0E452A;strokeColor=#0E452A;" vertex="1" parent="1">
          <mxGeometry x="839" y="-370" width="180" height="70" as="geometry" />
        </mxCell>
        <mxCell id="PsfEnYGuniVdeW-d2Mzt-225" value="" style="shape=component;jettyWidth=8;jettyHeight=4;" vertex="1" parent="PsfEnYGuniVdeW-d2Mzt-224">
          <mxGeometry x="1" width="20" height="20" relative="1" as="geometry">
            <mxPoint x="-27" y="7" as="offset" />
          </mxGeometry>
        </mxCell>
        <mxCell id="PsfEnYGuniVdeW-d2Mzt-230" value="" style="shape=folder;fontStyle=1;spacingTop=10;tabWidth=110;tabHeight=29;tabPosition=left;html=1;fontColor=#9AC7BF;strokeWidth=2;strokeColor=#0E452A;fillColor=#D5E8D4;" vertex="1" parent="1">
          <mxGeometry x="1178" y="-404" width="431.75" height="130" as="geometry" />
        </mxCell>
        <mxCell id="PsfEnYGuniVdeW-d2Mzt-231" value="publisher" style="text;html=1;strokeColor=none;fillColor=none;align=center;verticalAlign=middle;whiteSpace=wrap;rounded=0;fontColor=#177245;fontStyle=1" vertex="1" parent="1">
          <mxGeometry x="1180" y="-399" width="109" height="20" as="geometry" />
        </mxCell>
        <mxCell id="PsfEnYGuniVdeW-d2Mzt-240" style="rounded=0;orthogonalLoop=1;jettySize=auto;html=1;entryX=0.5;entryY=1;entryDx=0;entryDy=0;dashed=1;strokeColor=default;align=center;verticalAlign=middle;fontFamily=Helvetica;fontSize=11;fontColor=default;labelBackgroundColor=default;endArrow=block;endFill=0;" edge="1" parent="1" source="PsfEnYGuniVdeW-d2Mzt-232" target="PsfEnYGuniVdeW-d2Mzt-199">
          <mxGeometry relative="1" as="geometry" />
        </mxCell>
        <mxCell id="PsfEnYGuniVdeW-d2Mzt-243" style="edgeStyle=orthogonalEdgeStyle;rounded=0;orthogonalLoop=1;jettySize=auto;html=1;entryX=0.5;entryY=0;entryDx=0;entryDy=0;strokeColor=default;align=center;verticalAlign=middle;fontFamily=Helvetica;fontSize=11;fontColor=default;labelBackgroundColor=default;endArrow=open;endFill=0;" edge="1" parent="1" source="PsfEnYGuniVdeW-d2Mzt-232" target="PsfEnYGuniVdeW-d2Mzt-153">
          <mxGeometry relative="1" as="geometry" />
        </mxCell>
        <mxCell id="PsfEnYGuniVdeW-d2Mzt-232" value="&lt;b&gt;CreatedOrderKafkaPublisher&lt;/b&gt;" style="html=1;dropTarget=0;fillColor=#f5f5f5;fontColor=#0E452A;strokeColor=#0E452A;" vertex="1" parent="1">
          <mxGeometry x="1199" y="-360" width="180" height="70" as="geometry" />
        </mxCell>
        <mxCell id="PsfEnYGuniVdeW-d2Mzt-233" value="" style="shape=component;jettyWidth=8;jettyHeight=4;" vertex="1" parent="PsfEnYGuniVdeW-d2Mzt-232">
          <mxGeometry x="1" width="20" height="20" relative="1" as="geometry">
            <mxPoint x="-27" y="7" as="offset" />
          </mxGeometry>
        </mxCell>
        <mxCell id="PsfEnYGuniVdeW-d2Mzt-241" style="rounded=0;orthogonalLoop=1;jettySize=auto;html=1;dashed=1;strokeColor=default;align=center;verticalAlign=middle;fontFamily=Helvetica;fontSize=11;fontColor=default;labelBackgroundColor=default;endArrow=block;endFill=0;" edge="1" parent="1" source="PsfEnYGuniVdeW-d2Mzt-234" target="PsfEnYGuniVdeW-d2Mzt-201">
          <mxGeometry relative="1" as="geometry" />
        </mxCell>
        <mxCell id="PsfEnYGuniVdeW-d2Mzt-242" style="rounded=0;orthogonalLoop=1;jettySize=auto;html=1;strokeColor=default;align=center;verticalAlign=middle;fontFamily=Helvetica;fontSize=11;fontColor=default;labelBackgroundColor=default;endArrow=open;endFill=0;exitX=0.25;exitY=1;exitDx=0;exitDy=0;" edge="1" parent="1" source="PsfEnYGuniVdeW-d2Mzt-234" target="PsfEnYGuniVdeW-d2Mzt-153">
          <mxGeometry relative="1" as="geometry" />
        </mxCell>
        <mxCell id="PsfEnYGuniVdeW-d2Mzt-234" value="&lt;b&gt;CompletedOrderKafkaPublisher&lt;/b&gt;" style="html=1;dropTarget=0;fillColor=#f5f5f5;fontColor=#0E452A;strokeColor=#0E452A;" vertex="1" parent="1">
          <mxGeometry x="1399.75" y="-359" width="190" height="70" as="geometry" />
        </mxCell>
        <mxCell id="PsfEnYGuniVdeW-d2Mzt-235" value="" style="shape=component;jettyWidth=8;jettyHeight=4;" vertex="1" parent="PsfEnYGuniVdeW-d2Mzt-234">
          <mxGeometry x="1" width="20" height="20" relative="1" as="geometry">
            <mxPoint x="-27" y="7" as="offset" />
          </mxGeometry>
        </mxCell>
        <mxCell id="PsfEnYGuniVdeW-d2Mzt-238" style="rounded=0;orthogonalLoop=1;jettySize=auto;html=1;entryX=0.25;entryY=1;entryDx=0;entryDy=0;dashed=1;strokeColor=default;align=center;verticalAlign=middle;fontFamily=Helvetica;fontSize=11;fontColor=default;labelBackgroundColor=default;endArrow=block;endFill=0;" edge="1" parent="1" source="PsfEnYGuniVdeW-d2Mzt-148" target="PsfEnYGuniVdeW-d2Mzt-191">
          <mxGeometry relative="1" as="geometry" />
        </mxCell>
        <mxCell id="PsfEnYGuniVdeW-d2Mzt-244" style="rounded=0;orthogonalLoop=1;jettySize=auto;html=1;exitX=1;exitY=0.5;exitDx=0;exitDy=0;entryX=0;entryY=0.5;entryDx=0;entryDy=0;strokeColor=default;align=center;verticalAlign=middle;fontFamily=Helvetica;fontSize=11;fontColor=default;labelBackgroundColor=default;endArrow=open;endFill=0;" edge="1" parent="1" source="PsfEnYGuniVdeW-d2Mzt-170" target="PsfEnYGuniVdeW-d2Mzt-186">
          <mxGeometry relative="1" as="geometry" />
        </mxCell>
        <mxCell id="PsfEnYGuniVdeW-d2Mzt-246" style="rounded=0;orthogonalLoop=1;jettySize=auto;html=1;exitX=1;exitY=0.5;exitDx=0;exitDy=0;entryX=0.5;entryY=0;entryDx=0;entryDy=0;strokeColor=default;align=center;verticalAlign=middle;fontFamily=Helvetica;fontSize=11;fontColor=default;labelBackgroundColor=default;endArrow=open;endFill=0;" edge="1" parent="1" source="PsfEnYGuniVdeW-d2Mzt-203" target="PsfEnYGuniVdeW-d2Mzt-199">
          <mxGeometry relative="1" as="geometry" />
        </mxCell>
        <mxCell id="PsfEnYGuniVdeW-d2Mzt-247" style="rounded=0;orthogonalLoop=1;jettySize=auto;html=1;exitX=1;exitY=0.75;exitDx=0;exitDy=0;entryX=0.5;entryY=0;entryDx=0;entryDy=0;strokeColor=default;align=center;verticalAlign=middle;fontFamily=Helvetica;fontSize=11;fontColor=default;labelBackgroundColor=default;endArrow=open;endFill=0;" edge="1" parent="1" source="PsfEnYGuniVdeW-d2Mzt-203" target="PsfEnYGuniVdeW-d2Mzt-197">
          <mxGeometry relative="1" as="geometry" />
        </mxCell>
      </root>
    </mxGraphModel>
  </diagram>
</mxfile>
